<?xml version="1.0" encoding="utf-8"?>
<!-- Generator: Adobe Illustrator 21.1.0, SVG Export Plug-In . SVG Version: 6.00 Build 0)  -->
<svg version="1.1" id="Capa_1" xmlns="http://www.w3.org/2000/svg" xmlns:xlink="http://www.w3.org/1999/xlink" x="0px" y="0px"
	 viewBox="0 95.3 612 601.4" style="enable-background:new 0 95.3 612 601.4;" xml:space="preserve">
<g>
	<path d="M274.3,116.4c17.5,0,31.7,14.2,31.7,31.7c0,17.5-14.2,31.7-31.7,31.7c-5.8,0-10.6,4.7-10.6,10.6c0,5.8,4.7,10.6,10.6,10.6
		c29.1,0,52.8-23.7,52.8-52.8c0-29.1-23.7-52.8-52.8-52.8c-5.8,0-10.6,4.7-10.6,10.6C263.8,111.7,268.5,116.4,274.3,116.4z"/>
	<path d="M337.7,116.4c17.5,0,31.7,14.2,31.7,31.7c0,17.5-14.2,31.7-31.7,31.7c-5.8,0-10.6,4.7-10.6,10.6c0,5.8,4.7,10.6,10.6,10.6
		c29.1,0,52.8-23.7,52.8-52.8c0-29.1-23.7-52.8-52.8-52.8c-5.8,0-10.6,4.7-10.6,10.6C327.1,111.7,331.8,116.4,337.7,116.4z"/>
	<path d="M452.7,137.5c-4.9-24-26.2-42.2-51.7-42.2c-5.8,0-10.6,4.7-10.6,10.6c0,5.8,4.7,10.6,10.6,10.6c17.5,0,31.7,14.2,31.7,31.7
		c0,17.5-14.2,31.7-31.7,31.7c-5.8,0-10.6,4.7-10.6,10.6c0,5.8,4.7,10.6,10.6,10.6c25.5,0,46.8-18.2,51.7-42.2h138.2v10.6
		c-5.8,0-10.6,4.7-10.6,10.6c0,5.8,4.7,10.6,10.6,10.6v42.2c-5.8,0-10.6,4.7-10.6,10.6c0,5.8,4.7,10.6,10.6,10.6v10.6H21.1v-10.6
		c5.8,0,10.6-4.7,10.6-10.6c0-5.8-4.7-10.6-10.6-10.6v-42.2c5.8,0,10.6-4.7,10.6-10.6c0-5.8-4.7-10.6-10.6-10.6v-10.6h147.7h31.7
		c5.8,0,10.6-4.7,10.6-10.6c0-5.8-4.7-10.6-10.6-10.6h-19.2c4.4-12.3,16-21.1,29.7-21.1c17.5,0,31.7,14.2,31.7,31.7
		c0,17.5-14.2,31.7-31.7,31.7c-5.8,0-10.6,4.7-10.6,10.6c0,5.8,4.7,10.6,10.6,10.6c29.1,0,52.8-23.7,52.8-52.8
		c0-29.1-23.7-52.8-52.8-52.8c-25.5,0-46.8,18.2-51.7,42.2H0v147.7v411.5h612V285.2V137.5H452.7z M590.9,675.6H21.1V285.2h569.8
		V675.6z"/>
	<path d="M129.7,419.3c2.1,2.1,4.8,3.1,7.5,3.1c2.7,0,5.4-1,7.5-3.1l45.3-45.3v238.3h-31.7c-5.8,0-10.6,4.7-10.6,10.6
		s4.7,10.6,10.6,10.6h84.4c5.8,0,10.6-4.7,10.6-10.6s-4.7-10.6-10.6-10.6H211V348.5c0-1.4-0.3-2.7-0.8-4c-1.1-2.6-3.1-4.6-5.7-5.7
		c-2.6-1.1-5.5-1.1-8.1,0c-1.3,0.5-2.5,1.3-3.4,2.3l-63.3,63.3C125.6,408.5,125.6,415.2,129.7,419.3z"/>
	<path d="M316.6,549c0,46.5,37.9,84.4,84.4,84.4c46.5,0,84.4-37.9,84.4-84.4c0-32.4-18.4-60.5-45.2-74.7
		c20.8-13.1,34.7-36.2,34.7-62.5c0-40.7-33.1-73.9-73.9-73.9c-40.7,0-73.9,33.1-73.9,73.9c0,26.3,13.9,49.4,34.7,62.5
		C334.9,488.5,316.6,516.6,316.6,549z M348.2,411.8c0-29.1,23.7-52.8,52.8-52.8c29.1,0,52.8,23.7,52.8,52.8
		c0,29.1-23.7,52.8-52.8,52.8C371.9,464.6,348.2,440.9,348.2,411.8z M401,485.7c34.9,0,63.3,28.4,63.3,63.3s-28.4,63.3-63.3,63.3
		c-34.9,0-63.3-28.4-63.3-63.3S366,485.7,401,485.7z"/>
	<circle cx="84.4" cy="179.7" r="10.6"/>
	<circle cx="84.4" cy="243" r="10.6"/>
	<circle cx="52.8" cy="211.3" r="10.6"/>
	<circle cx="116.1" cy="211.3" r="10.6"/>
	<circle cx="147.7" cy="179.7" r="10.6"/>
	<circle cx="147.7" cy="243" r="10.6"/>
	<circle cx="211" cy="243" r="10.6"/>
	<circle cx="179.4" cy="211.3" r="10.6"/>
	<circle cx="242.7" cy="211.3" r="10.6"/>
	<circle cx="274.3" cy="243" r="10.6"/>
	<circle cx="337.7" cy="243" r="10.6"/>
	<circle cx="306" cy="211.3" r="10.6"/>
	<circle cx="369.3" cy="211.3" r="10.6"/>
	<circle cx="464.3" cy="179.7" r="10.6"/>
	<circle cx="401" cy="243" r="10.6"/>
	<circle cx="464.3" cy="243" r="10.6"/>
	<circle cx="432.6" cy="211.3" r="10.6"/>
	<circle cx="495.9" cy="211.3" r="10.6"/>
	<circle cx="527.6" cy="179.7" r="10.6"/>
	<circle cx="527.6" cy="243" r="10.6"/>
	<circle cx="559.2" cy="211.3" r="10.6"/>
</g>
</svg>
