<?xml version="1.0" encoding="utf-8"?>
<!-- Generator: Adobe Illustrator 21.1.0, SVG Export Plug-In . SVG Version: 6.00 Build 0)  -->
<svg version="1.1" id="Layer_1" xmlns="http://www.w3.org/2000/svg" xmlns:xlink="http://www.w3.org/1999/xlink" x="0px" y="0px"
	 viewBox="0 0 612 612" style="enable-background:new 0 0 612 612;" xml:space="preserve">
<g>
	<g>
		<g>
			<path d="M595.8,210L402,16.2C391.5,5.8,377.6,0,362.7,0c-14.9,0-28.8,5.8-39.3,16.2L16.2,323.4C5.8,333.9,0,347.8,0,362.7
				s5.8,28.8,16.2,39.3l23.9,23.9c0,0,0,0,0,0c0,0,0,0,0,0l160.6,160.6h-22.2c-7,0-12.7,5.7-12.7,12.7c0,7,5.7,12.7,12.7,12.7h70.7
				c0,0,0,0,0,0c0,0,0,0,0,0l184.1,0c7,0,12.8-5.7,12.8-12.7s-5.7-12.7-12.8-12.7l-135.6,0l297.9-297.9
				C617.4,266.9,617.4,231.7,595.8,210z M577.7,270.5L270.5,577.7c-5.6,5.6-13.2,8.7-21.2,8.8h-0.1c-8,0-15.6-3.1-21.2-8.8
				L67.2,416.8l295-295c5-5,5-13.1,0-18c-5-5-13.1-5-18,0l-295,295l-14.9-14.9c-5.6-5.6-8.8-13.2-8.8-21.3c0-8.1,3.1-15.6,8.8-21.3
				L341.4,34.3c5.6-5.6,13.2-8.8,21.3-8.8c8.1,0,15.6,3.1,21.3,8.8l69,69l-295,295c-5,5-5,13,0,18c2.5,2.5,5.8,3.7,9,3.7
				c3.3,0,6.5-1.2,9-3.7l295-295L577.7,228C589.4,239.8,589.4,258.8,577.7,270.5z"/>
			<path d="M314.1,368.2c-5-5-13-5-18,0L195.8,468.5c-5,5-5,13.1,0,18c2.5,2.5,5.8,3.7,9,3.7c3.3,0,6.5-1.2,9-3.7l100.3-100.3
				C319.1,381.3,319.1,373.2,314.1,368.2z"/>
			<path d="M273,463.5l-41.1,41.1c-5,5-5,13.1,0,18c2.5,2.5,5.8,3.7,9,3.7c3.3,0,6.5-1.2,9-3.7l41.1-41.1c5-5,5-13.1,0-18
				C286,458.5,278,458.5,273,463.5z"/>
			<path d="M310.8,425.6l-5.4,5.4c-5,5-5,13.1,0,18c2.5,2.5,5.8,3.7,9,3.7c3.3,0,6.5-1.2,9-3.7l5.4-5.4c5-5,5-13.1,0-18
				C323.9,420.6,315.8,420.6,310.8,425.6z"/>
			<path d="M486.6,195.8c-2.4-2.4-5.6-3.7-9-3.7c-3.4,0-6.6,1.3-9,3.7l-54.1,54.1c-2.4,2.4-3.7,5.6-3.7,9c0,3.4,1.3,6.6,3.7,9
				l36.1,36.1c2.5,2.5,5.8,3.7,9,3.7c3.3,0,6.5-1.2,9-3.7l54.1-54.1c5-5,5-13.1,0-18L486.6,195.8z M459.5,276.9l-18-18l36.1-36.1
				l18,18L459.5,276.9z"/>
			<path d="M382.9,95.8c3.3,0,6.5-1.2,9-3.7l5.4-5.4c5-5,5-13.1,0-18c-5-5-13.1-5-18,0l-5.4,5.4c-5,5-5,13.1,0,18
				C376.4,94.6,379.6,95.8,382.9,95.8z"/>
			<path d="M128.2,428l-5.4,5.4c-5,5-5,13.1,0,18c2.5,2.5,5.8,3.7,9,3.7c3.3,0,6.5-1.2,9-3.7l5.4-5.4c5-5,5-13.1,0-18
				C141.2,423,133.1,423,128.2,428z"/>
		</g>
	</g>
</g>
</svg>
