<?xml version="1.0" encoding="utf-8"?>
<!-- Generator: Adobe Illustrator 21.1.0, SVG Export Plug-In . SVG Version: 6.00 Build 0)  -->
<svg version="1.1" id="Capa_1" xmlns="http://www.w3.org/2000/svg" xmlns:xlink="http://www.w3.org/1999/xlink" x="0px" y="0px"
	 viewBox="0 198.5 612 394" style="enable-background:new 0 198.5 612 394;" xml:space="preserve">
<style type="text/css">
	.st0{fill:#030104;}
</style>
<g>
	<g>
		<path class="st0" d="M20.2,235.7c16.6,8.9,246.4,132.4,255,137c8.6,4.6,19.6,6.8,30.8,6.8c11.2,0,22.2-2.2,30.8-6.8
			c8.6-4.6,238.4-128.1,255-137c16.6-8.9,32.3-36.9,1.8-36.9H18.4C-12.1,198.8,3.6,226.8,20.2,235.7z M598.8,303.7
			c-18.9,9.8-250.5,131-262,137c-11.6,6-19.6,6.8-30.8,6.8c-11.2,0-19.3-0.8-30.8-6.8c-11.5-6-243.2-127.1-262-137
			C-0.1,296.8,0,304.9,0,311.2c0,6.3,0,249.4,0,249.4c0,14.3,19,32.6,33.7,32.6h544.6c14.7,0,33.7-18.4,33.7-32.6
			c0,0,0-243.1,0-249.4C612,304.9,612.1,296.8,598.8,303.7z"/>
	</g>
</g>
</svg>
