<?xml version="1.0" encoding="utf-8"?>
<!-- Generator: Adobe Illustrator 21.1.0, SVG Export Plug-In . SVG Version: 6.00 Build 0)  -->
<svg version="1.1" id="Layer_1" xmlns="http://www.w3.org/2000/svg" xmlns:xlink="http://www.w3.org/1999/xlink" x="0px" y="0px"
	 viewBox="0 127.7 612 535.8" style="enable-background:new 0 127.7 612 535.8;" xml:space="preserve">
<g>
	<g>
		<path d="M610.8,622.7l-24.3-84.3c-0.6-1.7-1.7-3.5-2.9-4.6c-15-45.6-52-80.9-98.8-93l-6.9-1.2c-10.4-2.9-21.9,0.6-29.5,9.2
			C423,477.7,390.7,480,356.6,480c-34.1,0-66.4-2.3-91.8-31.2c-7.5-8.7-19.1-12.1-29.5-9.2l-6.9,1.7c-35.2,9.2-65.3,31.8-84.3,61.8
			H71.3c-0.6,0-0.6,0-1.2-0.6c0-0.6-0.6-1.2-0.6-2.3l15-53.7c13.3-42.2,38.7-54.9,88.4-67.6c2.3-0.6,4-1.7,5.2-2.9
			c4,3.5,8.7,6.4,13.3,8.7c1.7,1.2,3.5,1.2,5.2,1.2c4,0,8.1-2.3,10.4-6.4c2.9-5.8,0.6-12.7-5.2-15.6c-26.6-13.9-45.6-53.1-45.6-93.6
			c0-35.8,29.5-65.3,65.3-65.3c6.9,0,13.3,1.2,19.6,2.9c-6.4,15.6-9.8,32.3-9.8,50.3c0,98.8,59.5,182,130,182
			c69.3,0,130.5-84.9,130.5-182c0-72.2-58.3-130.5-130.5-130.5c-45.6,0-86.1,23.7-109.2,59.5c-9.8-3.5-20.2-5.2-30.6-5.2
			c-31.2,0-58.9,16.8-74.5,41.6c-1.2-1.2-2.3-1.7-3.5-2.3c-8.7-4.6-17.3-6.4-27.1-6.4C84,214.3,58,240.3,58,272.7
			c0,18.5,5.2,35.8,13.3,49.7C44.7,329.3,21,339.7,10,374.9l-9.2,33.5c-1.7,5.8-0.6,12.1,2.9,16.8c3.5,5.2,9.8,8.1,16.2,8.1h44.5
			c-0.6,2.3-1.7,4.6-2.3,6.9l-15,54.3c-2.3,7.5-0.6,15.6,4.6,22c4.6,6.4,11.6,9.8,19.6,9.8h61.2c-1.7,4-2.9,8.1-4,12.1l-24.3,84.9
			c-2.3,9.8-0.6,20.2,5.8,28.3c6.4,8.1,15.6,12.7,25.4,12.7H482h19.6h78c9.8,0,19.6-4.6,25.4-12.7
			C611.3,643.5,613.7,633.1,610.8,622.7z M265.9,209.7c0.6-0.6,1.2-1.2,1.7-2.3c0.6-0.6,0.6-1.7,1.2-2.3
			c17.9-32.3,52.6-54.3,92.4-54.3c47.9,0,88.4,31.8,102.2,75.1c-20.2,4-41.6-4-54.3-21.4c-4-5.2-11-6.4-16.2-2.3
			c-2.3,1.7-3.5,3.5-4,5.8c-0.6,0.6-0.6,1.2-1.2,1.7c-16.2,32.9-70.5,46.8-132.3,34.7C257.3,232.2,260.7,220.7,265.9,209.7z
			 M298.3,271.5c46.2,0,84.3-14.4,104-41.6c14.4,12.7,32.3,19.6,51.4,19.6c4.6,0,9.8-0.6,14.4-1.7c0.6,3.5,0.6,6.4,0.6,9.8
			c0,84.9-50.3,159.4-107.4,159.4c-54.9,0-102.8-68.7-106.9-149.6C269.4,270.4,284.4,271.5,298.3,271.5z M24.5,410.2l8.1-28.9
			c6.9-23.7,21.4-30.6,50.3-37.5c1.7-0.6,3.5-1.2,4.6-2.3c2.9,2.3,5.2,4,8.7,5.8c1.7,1.2,3.5,1.2,5.2,1.2c4,0,8.1-2.3,10.4-6.4
			c2.9-5.8,0.6-12.7-4.6-15.6c-15-8.1-26-30.6-26-53.7c0-19.6,15.6-35.2,35.2-35.2c6.4,0,11.6,1.2,16.8,4c1.7,0.6,2.9,1.2,4.6,1.2
			c-2.9,8.7-4.6,17.9-4.6,27.7c0,32.9,11,65.3,28.3,87.8c-34.7,8.7-65.3,20.2-85.5,52H24.5L24.5,410.2z M587.1,637.7
			c-1.2,1.2-3.5,3.5-7.5,3.5h-78H482H135.4c-4,0-6.4-2.3-7.5-3.5c-1.7-2.3-2.3-5.8-1.7-8.1l24.3-84.3c11.6-39.9,43.3-71,83.8-81.4
			l6.9-1.7c1.7-0.6,4.6,0.6,6.4,2.3c31.8,36.4,71,39.3,109.2,39.3c38.1,0,77.4-2.9,109.2-39.3c1.7-1.7,4-2.9,6.9-2.3l6.9,1.7
			c39.9,10.4,72.2,41.6,83.8,81.4l10.4,35.8c0.6,1.7,1.2,2.9,2.3,4l12.7,43.9C589.4,632,588.8,635.4,587.1,637.7z"/>
	</g>
</g>
</svg>
